<?xml version="1.0" encoding="UTF-8" standalone="no"?>
<svg
   xmlns:dc="http://purl.org/dc/elements/1.1/"
   xmlns:cc="http://creativecommons.org/ns#"
   xmlns:rdf="http://www.w3.org/1999/02/22-rdf-syntax-ns#"
   xmlns:svg="http://www.w3.org/2000/svg"
   xmlns="http://www.w3.org/2000/svg"
   xmlns:sodipodi="http://sodipodi.sourceforge.net/DTD/sodipodi-0.dtd"
   xmlns:inkscape="http://www.inkscape.org/namespaces/inkscape"
   inkscape:version="1.1-dev (bc69992, 2020-04-15)"
   sodipodi:docname="DESRES_Logo_K.svg"
   viewBox="0 0 729.7453 208.04533"
   height="208.04533"
   width="729.7453"
   xml:space="preserve"
   id="svg44"
   version="1.1"><metadata
     id="metadata50"><rdf:RDF><cc:Work
         rdf:about=""><dc:format>image/svg+xml</dc:format><dc:type
           rdf:resource="http://purl.org/dc/dcmitype/StillImage" /><dc:title></dc:title></cc:Work></rdf:RDF></metadata><defs
     id="defs48"><clipPath
       id="clipPath60"
       clipPathUnits="userSpaceOnUse"><path
         id="path58"
         d="M 0,612 H 792 V 0 H 0 Z" /></clipPath></defs><sodipodi:namedview
     fit-margin-bottom="30"
     fit-margin-right="30"
     fit-margin-left="30"
     fit-margin-top="30"
     lock-margins="true"
     width="1055px"
     inkscape:current-layer="g52"
     inkscape:window-maximized="0"
     inkscape:window-y="103"
     inkscape:window-x="649"
     inkscape:cy="19.523969"
     inkscape:cx="254.13721"
     inkscape:zoom="0.66666667"
     showgrid="false"
     id="namedview46"
     inkscape:window-height="772"
     inkscape:window-width="1435"
     inkscape:pageshadow="2"
     inkscape:pageopacity="0"
     guidetolerance="10"
     gridtolerance="10"
     objecttolerance="10"
     borderopacity="1"
     bordercolor="#666666"
     pagecolor="#ffffff" /><g
     transform="matrix(1.3333333,0,0,-1.3333333,-184.78759,511.50799)"
     inkscape:label="DESRES_Logo_K"
     inkscape:groupmode="layer"
     id="g52"><g
       id="g54"><g
         clip-path="url(#clipPath60)"
         id="g56"><g
           transform="translate(191.7852,323.8838)"
           id="g62"><path
             id="path64"
             style="fill:#231f20;fill-opacity:1;fill-rule:nonzero;stroke:none"
             d="m 0,0 c 3.068,0.509 6.987,0.797 11.137,0.797 7.159,0 12.104,-1.477 15.623,-4.435 3.695,-3.011 5.971,-7.557 5.971,-14.089 0,-6.822 -2.335,-11.935 -5.971,-15.23 -3.803,-3.464 -9.885,-5.223 -17.33,-5.223 -4.09,0 -7.159,0.227 -9.43,0.505 z m 6.987,-32.443 c 0.968,-0.17 2.443,-0.17 3.864,-0.17 9.092,-0.057 14.488,4.939 14.488,14.659 0.058,8.463 -4.828,13.295 -13.58,13.295 -2.216,0 -3.804,-0.169 -4.772,-0.4 z" /></g><g
           transform="translate(265.4907,303.0859)"
           id="g66"><path
             id="path68"
             style="fill:#231f20;fill-opacity:1;fill-rule:nonzero;stroke:none"
             d="M 0,0 H -14.433 V -11.25 H 1.709 v -5.74 h -23.13 V 21.307 H 0.853 V 15.571 H -14.433 V 5.684 H 0 Z" /></g><g
           transform="translate(288.915,293.7119)"
           id="g70"><path
             id="path72"
             style="fill:#231f20;fill-opacity:1;fill-rule:nonzero;stroke:none"
             d="m 0,0 c 2.271,-1.306 5.681,-2.441 9.261,-2.441 4.489,0 6.988,2.102 6.988,5.226 0,2.899 -1.931,4.605 -6.817,6.363 -6.308,2.271 -10.342,5.625 -10.342,11.136 0,6.25 5.227,11.025 13.523,11.025 4.15,0 7.219,-0.91 9.205,-1.931 l -1.702,-5.627 c -1.366,0.74 -4.035,1.822 -7.616,1.822 -4.432,0 -6.362,-2.389 -6.362,-4.608 0,-2.952 2.213,-4.317 7.329,-6.305 6.649,-2.498 9.886,-5.851 9.886,-11.365 0,-6.137 -4.657,-11.533 -14.547,-11.533 -4.033,0 -8.238,1.188 -10.341,2.442 z" /></g><g
           transform="translate(319.5488,326.4434)"
           id="g74"><path
             id="path76"
             style="fill:#231f20;fill-opacity:1;fill-rule:nonzero;stroke:none"
             d="m 0,0 h 7.049 v -16.481 h 0.112 c 0.852,1.305 2.046,2.444 3.464,3.181 1.367,0.797 3.016,1.252 4.774,1.252 4.717,0 9.659,-3.128 9.659,-11.988 V -40.348 H 18.07 v 15.516 c 0,4.032 -1.479,7.041 -5.341,7.041 -2.727,0 -4.661,-1.814 -5.398,-3.917 -0.227,-0.567 -0.282,-1.308 -0.282,-2.102 V -40.348 H 0 Z" /></g><g
           transform="translate(374.96,292.7461)"
           id="g78"><path
             id="path80"
             style="fill:#231f20;fill-opacity:1;fill-rule:nonzero;stroke:none"
             d="m 0,0 c 0,-2.498 0.113,-4.944 0.396,-6.65 h -6.304 l -0.457,3.068 h -0.172 c -1.7,-2.154 -4.6,-3.69 -8.182,-3.69 -5.57,0 -8.69,4.034 -8.69,8.238 0,6.989 6.191,10.514 16.42,10.456 v 0.452 c 0,1.817 -0.738,4.833 -5.623,4.833 -2.731,0 -5.568,-0.855 -7.448,-2.047 l -1.361,4.545 c 2.044,1.251 5.625,2.441 9.997,2.441 C -2.559,21.646 0,16.023 0,10.001 Z m -6.82,6.876 c -4.939,0.113 -9.661,-0.966 -9.661,-5.17 0,-2.728 1.762,-3.977 3.98,-3.977 2.783,0 4.831,1.814 5.455,3.802 0.171,0.515 0.226,1.084 0.226,1.536 z" /></g><g
           transform="translate(387.4058,313.7656)"
           id="g82"><path
             id="path84"
             style="fill:#231f20;fill-opacity:1;fill-rule:nonzero;stroke:none"
             d="m 0,0 2.901,-12.551 c 0.624,-2.959 1.249,-5.971 1.763,-8.982 h 0.111 c 0.57,3.011 1.475,6.079 2.276,8.921 L 10.628,0 h 5.686 l 3.465,-12.272 c 0.85,-3.238 1.588,-6.25 2.213,-9.261 h 0.114 c 0.455,3.011 1.079,6.023 1.817,9.261 L 26.991,0 h 6.878 l -8.693,-27.67 h -6.48 l -3.294,11.25 c -0.853,2.903 -1.475,5.515 -2.104,8.865 h -0.112 c -0.569,-3.408 -1.31,-6.136 -2.103,-8.865 L 7.558,-27.67 H 1.028 L -7.156,0 Z" /></g><g
           transform="translate(440.666,323.8838)"
           id="g86"><path
             id="path88"
             style="fill:#231f20;fill-opacity:1;fill-rule:nonzero;stroke:none"
             d="m 0,0 c 2.611,0.453 6.537,0.797 10.57,0.797 5.516,0 9.257,-0.912 11.817,-3.07 2.106,-1.761 3.299,-4.431 3.299,-7.671 0,-4.941 -3.351,-8.297 -6.938,-9.602 v -0.17 c 2.734,-1.025 4.378,-3.693 5.345,-7.388 1.192,-4.774 2.219,-9.204 3.011,-10.684 h -7.215 c -0.566,1.141 -1.48,4.266 -2.56,9.035 -1.079,5.005 -2.898,6.593 -6.876,6.706 H 6.933 V -37.788 H 0 Z m 6.933,-16.931 h 4.148 c 4.717,0 7.667,2.5 7.667,6.306 0,4.204 -2.95,6.137 -7.494,6.137 -2.219,0 -3.638,-0.171 -4.321,-0.34 z" /></g><g
           transform="translate(479.2549,297.9727)"
           id="g90"><path
             id="path92"
             style="fill:#231f20;fill-opacity:1;fill-rule:nonzero;stroke:none"
             d="m 0,0 c 0.169,-5 4.088,-7.159 8.521,-7.159 3.244,0 5.571,0.457 7.673,1.253 l 1.023,-4.83 c -2.39,-0.967 -5.684,-1.763 -9.661,-1.763 -8.979,0 -14.263,5.566 -14.263,14.035 0,7.669 4.657,14.884 13.522,14.884 9.035,0 11.938,-7.383 11.938,-13.465 C 18.753,1.649 18.641,0.627 18.519,0 Z M 12.16,4.888 C 12.216,7.444 11.081,11.65 6.42,11.65 2.098,11.65 0.283,7.727 0,4.888 Z" /></g><g
           transform="translate(504.7197,292.5195)"
           id="g94"><path
             id="path96"
             style="fill:#231f20;fill-opacity:1;fill-rule:nonzero;stroke:none"
             d="m 0,0 c 1.587,-0.966 4.603,-1.993 7.101,-1.993 3.069,0 4.431,1.253 4.431,3.072 0,1.872 -1.136,2.838 -4.544,4.034 -5.401,1.876 -7.668,4.826 -7.616,8.067 0,4.887 4.029,8.693 10.453,8.693 3.07,0 5.741,-0.792 7.328,-1.647 l -1.357,-4.942 c -1.201,0.681 -3.411,1.593 -5.854,1.593 -2.502,0 -3.867,-1.197 -3.867,-2.903 0,-1.758 1.309,-2.609 4.83,-3.86 5.005,-1.819 7.328,-4.378 7.389,-8.469 0,-5 -3.92,-8.691 -11.254,-8.691 -3.351,0 -6.361,0.853 -8.407,1.989 z" /></g><g
           transform="translate(535.1221,297.9727)"
           id="g98"><path
             id="path100"
             style="fill:#231f20;fill-opacity:1;fill-rule:nonzero;stroke:none"
             d="m 0,0 c 0.169,-5 4.095,-7.159 8.525,-7.159 3.239,0 5.566,0.457 7.673,1.253 l 1.018,-4.83 c -2.385,-0.967 -5.684,-1.763 -9.661,-1.763 -8.974,0 -14.262,5.566 -14.262,14.035 0,7.669 4.661,14.884 13.521,14.884 9.04,0 11.938,-7.383 11.938,-13.465 C 18.752,1.649 18.635,0.627 18.525,0 Z M 12.159,4.888 C 12.216,7.444 11.08,11.65 6.424,11.65 2.106,11.65 0.287,7.727 0,4.888 Z" /></g><g
           transform="translate(582.4053,292.7461)"
           id="g102"><path
             id="path104"
             style="fill:#231f20;fill-opacity:1;fill-rule:nonzero;stroke:none"
             d="m 0,0 c 0,-2.498 0.117,-4.944 0.396,-6.65 h -6.3 l -0.458,3.068 h -0.169 c -1.707,-2.154 -4.606,-3.69 -8.183,-3.69 -5.569,0 -8.695,4.034 -8.695,8.238 0,6.989 6.193,10.514 16.426,10.456 v 0.452 c 0,1.817 -0.741,4.833 -5.633,4.833 -2.725,0 -5.57,-0.855 -7.443,-2.047 l -1.365,4.545 c 2.045,1.251 5.631,2.441 10,2.441 C -2.554,21.646 0,16.023 0,10.001 Z m -6.819,6.876 c -4.943,0.113 -9.662,-0.966 -9.662,-5.17 0,-2.728 1.767,-3.977 3.978,-3.977 2.785,0 4.831,1.814 5.458,3.802 0.165,0.515 0.226,1.084 0.226,1.536 z" /></g><g
           transform="translate(591.2178,304.8467)"
           id="g106"><path
             id="path108"
             style="fill:#231f20;fill-opacity:1;fill-rule:nonzero;stroke:none"
             d="m 0,0 c 0,3.751 -0.052,6.421 -0.226,8.919 h 6.08 L 6.085,3.638 h 0.227 c 1.367,3.922 4.599,5.908 7.554,5.908 0.684,0 1.079,-0.055 1.649,-0.17 V 2.787 C 14.945,2.898 14.323,3.016 13.466,3.016 10.115,3.016 7.843,0.853 7.22,-2.27 7.103,-2.896 6.99,-3.632 6.99,-4.433 V -18.751 H 0 Z" /></g><g
           transform="translate(631.5693,286.9492)"
           id="g110"><path
             id="path112"
             style="fill:#231f20;fill-opacity:1;fill-rule:nonzero;stroke:none"
             d="m 0,0 c -1.479,-0.68 -4.378,-1.476 -7.841,-1.476 -8.636,0 -14.262,5.567 -14.262,14.149 0,8.295 5.68,14.77 15.393,14.77 2.559,0 5.174,-0.567 6.764,-1.305 l -1.25,-5.225 c -1.136,0.509 -2.782,1.077 -5.283,1.077 -5.339,0 -8.526,-3.919 -8.464,-8.978 0,-5.684 3.689,-8.921 8.464,-8.921 2.446,0 4.147,0.513 5.514,1.079 z" /></g><g
           transform="translate(638.167,326.4434)"
           id="g114"><path
             id="path116"
             style="fill:#231f20;fill-opacity:1;fill-rule:nonzero;stroke:none"
             d="m 0,0 h 7.047 v -16.481 h 0.109 c 0.853,1.305 2.049,2.444 3.468,3.181 1.362,0.797 3.016,1.252 4.773,1.252 4.718,0 9.663,-3.128 9.663,-11.988 v -16.312 h -6.99 v 15.516 c 0,4.032 -1.479,7.041 -5.344,7.041 -2.725,0 -4.657,-1.814 -5.396,-3.917 -0.227,-0.567 -0.283,-1.308 -0.283,-2.102 V -40.348 H 0 Z" /></g><g
           transform="translate(164.4697,253.499)"
           id="g118"><path
             id="path120"
             style="fill:#231f20;fill-opacity:1;fill-rule:nonzero;stroke:none"
             d="M 0,0 H 498.93 V -3.402 H -3.377 L -3.379,107.632 H 113.58 v -3.403 H 0 Z" /></g></g></g></g></svg>
